<svg xmlns="http://www.w3.org/2000/svg" viewBox="0 0 360 540"><g transform="translate(-151.42857,-248.08929)"><g transform="translate(151.42857,-264.27289)"><rect width="359" height="539" rx="29.944447" ry="29.944447" x="0.5" y="512.86218" style="fill:#ffffff;stroke:#000000;stroke-width:0.99999976" /><path d="m 30,542.36 c -5.54,0 -10,4.46 -10,10 l 0,5 c 0,3 1.32,5.67 3.41,7.5 -2.08,1.83 -3.41,4.5 -3.41,7.5 l 0,10 c 0,5.54 4.46,10 10,10 5.54,0 10,-4.46 10,-10 l 0,-10 c 0,-3 -1.32,-5.67 -3.41,-7.5 2.08,-1.83 3.41,-4.5 3.41,-7.5 l 0,-5 c 0,-5.54 -4.46,-10 -10,-10 z m 0,5 c 2.77,0 5,2.23 5,5 l 0,5 c 0,2.77 -2.23,5 -5,5 -2.77,0 -5,-2.23 -5,-5 l 0,-5 c 0,-2.77 2.23,-5 5,-5 z m 0,20 c 2.77,0 5,2.23 5,5 l 0,10 c 0,2.77 -2.23,5 -5,5 -2.77,0 -5,-2.23 -5,-5 l 0,-10 c 0,-2.77 2.23,-5 5,-5 z" style="fill:#ff5555;fill-opacity:1;stroke:none" /><path d="m 330,1022.36 c -5.54,0 -10,-4.46 -10,-10 l 0,-5 c 0,-3 1.32,-5.67 3.41,-7.5 C 321.32,998.03 320,995.37 320,992.36 l 0,-10 c 0,-5.54 4.46,-10 10,-10 5.54,0 10,4.46 10,10 l 0,10 c 0,3 -1.32,5.67 -3.41,7.5 2.08,1.83 3.41,4.5 3.41,7.5 l 0,5 c 0,5.54 -4.46,10 -10,10 z m 0,-5 c 2.77,0 5,-2.23 5,-5 l 0,-5 c 0,-2.77 -2.23,-5 -5,-5 -2.77,0 -5,2.23 -5,5 l 0,5 c 0,2.77 2.23,5 5,5 z m 0,-20 c 2.77,0 5,-2.23 5,-5 l 0,-10 c 0,-2.77 -2.23,-5 -5,-5 -2.77,0 -5,2.23 -5,5 l 0,10 c 0,2.77 2.23,5 5,5 z" style="fill:#ff5555;fill-opacity:1;stroke:none" /><path d="m 90,557.36 c 0,0 6,15 13,25 7,10 17,20 17,20 0,0 -10,10 -17,20 -7,10 -13,25 -13,25 0,0 -6,-15 -13,-25 -7,-10 -17,-20 -17,-20 0,0 10,-10 17,-20 7,-10 13,-25 13,-25" style="fill:#ff5555;stroke:none" /><path d="m 270,557.36 c 0,0 6,15 13,25 7,10 17,20 17,20 0,0 -10,10 -17,20 -7,10 -13,25 -13,25 0,0 -6,-15 -13,-25 -7,-10 -17,-20 -17,-20 0,0 10,-10 17,-20 7,-10 13,-25 13,-25" style="fill:#ff5555;stroke:none" /><path d="m 180,647.36 c 0,0 6,15 13,25 7,10 17,20 17,20 0,0 -10,10 -17,20 -7,10 -13,25 -13,25 0,0 -6,-15 -13,-25 -7,-10 -17,-20 -17,-20 0,0 10,-10 17,-20 7,-10 13,-25 13,-25" style="fill:#ff5555;stroke:none" /><path d="m 90,737.36 c 0,0 6,15 13,25 7,10 17,20 17,20 0,0 -10,10 -17,20 -7,10 -13,25 -13,25 0,0 -6,-15 -13,-25 -7,-10 -17,-20 -17,-20 0,0 10,-10 17,-20 7,-10 13,-25 13,-25" style="fill:#ff5555;stroke:none" /><path d="m 270,737.36 c 0,0 6,15 13,25 7,10 17,20 17,20 0,0 -10,10 -17,20 -7,10 -13,25 -13,25 0,0 -6,-15 -13,-25 -7,-10 -17,-20 -17,-20 0,0 10,-10 17,-20 7,-10 13,-25 13,-25" style="fill:#ff5555;stroke:none" /><path d="m 180,827.36 c 0,0 6,15 13,25 7,10 17,20 17,20 0,0 -10,10 -17,20 -7,10 -13,25 -13,25 0,0 -6,-15 -13,-25 -7,-10 -17,-20 -17,-20 0,0 10,-10 17,-20 7,-10 13,-25 13,-25" style="fill:#ff5555;stroke:none" /><path d="m 90,917.36 c 0,0 6,15 13,25 7,10 17,20 17,20 0,0 -10,10 -17,20 -7,10 -13,25 -13,25 0,0 -6,-15 -13,-25 -7,-10 -17,-20 -17,-20 0,0 10,-10 17,-20 7,-10 13,-25 13,-25" style="fill:#ff5555;stroke:none" /><path d="m 270,917.36 c 0,0 6,15 13,25 7,10 17,20 17,20 0,0 -10,10 -17,20 -7,10 -13,25 -13,25 0,0 -6,-15 -13,-25 -7,-10 -17,-20 -17,-20 0,0 10,-10 17,-20 7,-10 13,-25 13,-25" style="fill:#ff5555;stroke:none" /><path d="m 30,602.36 c 0,0 3,7.5 6.5,12.5 3.5,5 8.5,10 8.5,10 0,0 -5,5 -8.5,10 -3.5,5 -6.5,12.5 -6.5,12.5 0,0 -3,-7.5 -6.5,-12.5 -3.5,-5 -8.5,-10 -8.5,-10 0,0 5,-5 8.5,-10 3.5,-5 6.5,-12.5 6.5,-12.5" style="fill:#ff5555;stroke:none" /><path d="m 330,917.36 c 0,0 3,7.5 6.5,12.5 3.5,5 8.5,10 8.5,10 0,0 -5,5 -8.5,10 -3.5,5 -6.5,12.5 -6.5,12.5 0,0 -3,-7.5 -6.5,-12.5 -3.5,-5 -8.5,-10 -8.5,-10 0,0 5,-5 8.5,-10 3.5,-5 6.5,-12.5 6.5,-12.5" style="fill:#ff5555;stroke:none" /></g></g></svg>